#!OML:ASF E:\VariousWalksJay\Project 1\Capture day 1\Session 1\Actor2.ASF
:FULLY-SPECIFIED
:DEGREES
728
root 4.76497 17.0981 7.4737 26.6367 -45.0137 -11.9424
lowerback 16.0541 -1.09539 6.48498
upperback 13.1198 -1.17964 -2.22728
thorax 5.02032 -0.210479 -5.91629
lowerneck 1.06278 1.61068 2.56889
upperneck -3.68375 2.26148 1.65036
head -1.29917 1.064 0.0496459
rclavicle -3.97569e-014 1.82882e-014
rhumerus -38.8996 14.7732 -92.1713
rradius 69.2155
rwrist 5.83267
rhand -27.8583 -6.9354
rfingers 7.12502
rthumb -1.24907 -36.9115
lclavicle -3.97569e-014 1.82882e-014
lhumerus 3.49021 -30.6385 75.8039
lradius 77.5572
lwrist 55.1528
lhand -39.5017 7.76618
lfingers 7.12502
lthumb -12.4874 37.3731
rfemur -24.8736 3.83987 25.7714
rtibia 62.8977
rfoot -12.6235 -7.64995
rtoes -23.6179
lfemur -48.4318 11.2433 -21.5066
ltibia 33.8868
lfoot -5.97359 5.35994
ltoes 5.49439
729
root 4.75138 17.1002 7.53989 26.5523 -45.1032 -11.7988
lowerback 16.4466 -1.11453 6.35783
upperback 13.1686 -1.20258 -2.24844
thorax 4.8648 -0.237708 -5.85995
lowerneck 0.943401 1.62795 2.58267
upperneck -3.76435 2.27937 1.55387
head -1.30265 1.0738 0.0181874
rclavicle 3.49861e-014 3.10104e-014
rhumerus -38.5987 14.9584 -92.0021
rradius 69.5942
rwrist 5.82727
rhand -27.928 -6.9497
rfingers 7.12502
rthumb -1.31636 -36.9254
lclavicle 3.49861e-014 3.10104e-014
lhumerus 3.78216 -30.5465 75.5105
lradius 78.0625
lwrist 55.1361
lhand -39.5368 7.73084
lfingers 7.12502
lthumb -12.5213 37.3357
rfemur -26.7078 3.98328 25.5245
rtibia 66.0437
rfoot -12.9925 -8.14037
rtoes -23.8904
lfemur -48.3133 11.2896 -21.7768
ltibia 34.061
lfoot -6.29171 5.27702
ltoes 5.73182
730
root 4.73981 17.098 7.60286 26.4032 -45.185 -11.6208
lowerback 16.8771 -1.13798 6.235
upperback 13.243 -1.23169 -2.28095
thorax 4.7188 -0.266621 -5.81755
lowerneck 0.846184 1.63719 2.60677
upperneck -3.88614 2.28832 1.46143
head -1.32299 1.0781 -0.0140857
rclavicle 1.74931e-014 -8.74653e-015
rhumerus -38.2722 15.1392 -91.8262
rradius 69.9937
rwrist 5.82474
rhand -28.0098 -6.95847
rfingers 7.12502
rthumb -1.39539 -36.9337
lclavicle 1.74931e-014 -8.74653e-015
lhumerus 4.1626 -30.4653 75.1317
lradius 78.6021
lwrist 55.1283
lhand -39.5715 7.69463
lfingers 7.12502
lthumb -12.5547 37.2974
rfemur -28.6235 4.1048 25.2746
rtibia 69.3081
rfoot -13.4517 -8.69885
rtoes -24.1217
lfemur -48.2087 11.3247 -22.0649
ltibia 34.3084
lfoot -6.61485 5.18581
ltoes 5.91198
731
root 4.73001 17.0914 7.66288 26.1799 -45.2601 -11.4073
lowerback 17.3544 -1.1704 6.10622
upperback 13.3425 -1.27399 -2.3184
thorax 4.57621 -0.30214 -5.77509
lowerneck 0.779318 1.64514 2.62324
upperneck -4.04861 2.29707 1.36708
head -1.36152 1.08166 -0.0462935
rclavicle -2.70347e-014 4.29375e-014
rhumerus -37.9243 15.3396 -91.6333
rradius 70.4144
rwrist 5.82659
rhand -28.088 -6.98479
rfingers 7.12502
rthumb -1.47086 -36.9595
lclavicle -2.70347e-014 4.29375e-014
lhumerus 4.61466 -30.3652 74.6888
lradius 79.1747
lwrist 55.1362
lhand -39.6082 7.66507
lfingers 7.12502
lthumb -12.5901 37.2657
rfemur -30.6008 4.20269 25.0182
rtibia 72.6534
rfoot -13.954 -9.27556
rtoes -24.2921
lfemur -48.1096 11.346 -22.3684
ltibia 34.6356
lfoot -6.95227 5.08848
ltoes 5.94935
732
root 4.72187 17.0801 7.72014 25.8702 -45.3266 -11.1584
lowerback 17.8944 -1.2148 5.96811
upperback 13.4665 -1.33328 -2.35974
thorax 4.42818 -0.346898 -5.72849
lowerneck 0.754857 1.6539 2.62737
upperneck -4.2562 2.30887 1.27429
head -1.42192 1.08607 -0.0768385
rclavicle 1.43125e-014 8.11041e-014
rhumerus -37.5618 15.5648 -91.4243
rradius 70.8505
rwrist 5.82367
rhand -28.1706 -7.02031
rfingers 7.12502
rthumb -1.5507 -36.9944
lclavicle 1.43125e-014 8.11041e-014
lhumerus 5.1287 -30.2351 74.1899
lradius 79.7772
lwrist 55.1635
lhand -39.6521 7.65081
lfingers 7.12502
lthumb -12.6324 37.2488
rfemur -32.6145 4.27785 24.751
rtibia 76.043
rfoot -14.4943 -9.79652
rtoes -24.3228
lfemur -48.0046 11.3467 -22.6804
ltibia 35.0494
lfoot -7.31628 5.00607
ltoes 5.91962
733
root 4.71514 17.0638 7.77498 25.4715 -45.3825 -10.8777
lowerback 18.5053 -1.26604 5.83029
upperback 13.615 -1.40173 -2.40913
thorax 4.27271 -0.396209 -5.6885
lowerneck 0.770585 1.65837 2.64771
upperneck -4.51 2.3169 1.17482
head -1.50397 1.08764 -0.112934
rclavicle 3.18055e-015 -9.54166e-015
rhumerus -37.1873 15.7859 -91.2031
rradius 71.3024
rwrist 5.8178
rhand -28.2564 -7.05905
rfingers 7.12502
rthumb -1.63354 -37.0325
lclavicle 3.18055e-015 -9.54166e-015
lhumerus 5.71263 -30.0919 73.6261
lradius 80.408
lwrist 55.2168
lhand -39.7008 7.6612
lfingers 7.12502
lthumb -12.6793 37.2563
rfemur -34.6502 4.32393 24.4753
rtibia 79.4408
rfoot -15.0465 -10.2415
rtoes -24.3716
lfemur -47.8878 11.3265 -22.9967
ltibia 35.557
lfoot -7.71536 4.94084
ltoes 5.89508
